HIERARCHY
ROOT Hips
{
	OFFSET -3.958830 18.904000 13.208200
	CHANNELS 6 Xposition Yposition Zposition Zrotation Yrotation Xrotation 
	JOINT LHipJoint
	{
		OFFSET 0.000000 0.000000 0.000000
		CHANNELS 3 Zrotation Yrotation Xrotation
		JOINT LeftUpLeg
		{
			OFFSET 1.800000 -1.400000 0.085000
			CHANNELS 3 Zrotation Yrotation Xrotation
			JOINT LeftLeg
			{
				OFFSET 2.215000 -6.000000 0.000000
				CHANNELS 3 Zrotation Yrotation Xrotation
				JOINT LeftFoot
				{
					OFFSET 2.500000 -6.900000 0.000000
					CHANNELS 3 Zrotation Yrotation Xrotation
					JOINT LeftToeBase
					{
						OFFSET 0.200000 -0.500000 1.950000
						CHANNELS 3 Zrotation Yrotation Xrotation
						End Site
						{
							OFFSET 0.000000 0.000000 0.000000
						}
					}
				}
			}
		}
	}
	JOINT RHipJoint
	{
		OFFSET 0.000000 0.000000 0.000000
		CHANNELS 3 Zrotation Yrotation Xrotation
		JOINT RightUpLeg
		{
			OFFSET -1.800000 -1.400000 0.085000
			CHANNELS 3 Zrotation Yrotation Xrotation
			JOINT RightLeg
			{
				OFFSET -2.215000 -6.000000 0.000000
				CHANNELS 3 Zrotation Yrotation Xrotation
				JOINT RightFoot
				{
					OFFSET -2.500000 -6.900000 0.000000
					CHANNELS 3 Zrotation Yrotation Xrotation
					JOINT RightToeBase
					{
						OFFSET -0.200000 -0.500000 1.950000
						CHANNELS 3 Zrotation Yrotation Xrotation
						End Site
						{
							OFFSET 0.000000 0.000000 0.000000
						}
					}
				}
			}
		}
	}
	JOINT LowerBack
	{
		OFFSET 0.000000 0.000000 0.000000
		CHANNELS 3 Zrotation Yrotation Xrotation
		JOINT Spine
		{
			OFFSET -0.087000 1.940000 -0.288900
			CHANNELS 3 Zrotation Yrotation Xrotation
			JOINT Spine1
			{
				OFFSET 0.000000 1.950000 0.060000
				CHANNELS 3 Zrotation Yrotation Xrotation
				JOINT Neck
				{
					OFFSET 0.000000 0.000000 0.000000
					CHANNELS 3 Zrotation Yrotation Xrotation
					JOINT Neck1
					{
						OFFSET 0.000000 1.600000 0.340000
						CHANNELS 3 Zrotation Yrotation Xrotation
						JOINT Head
						{
							OFFSET 0.000000 1.667000 -0.240000
							CHANNELS 3 Zrotation Yrotation Xrotation
							End Site
							{
								OFFSET 0.000000 0.000000 0.000000
							}
						}
					}
				}
				JOINT LeftShoulder
				{
					OFFSET 0.000000 0.000000 0.000000
					CHANNELS 3 Zrotation Yrotation Xrotation
					JOINT LeftArm
					{
						OFFSET 2.700000 1.550000 -0.730000
						CHANNELS 3 Zrotation Yrotation Xrotation
						JOINT LeftForeArm
						{
							OFFSET 5.450000 0.000000 0.000000
							CHANNELS 3 Zrotation Yrotation Xrotation
							JOINT LeftHand
							{
								OFFSET 3.450000 0.000000 0.000000
								CHANNELS 3 Zrotation Yrotation Xrotation
								JOINT LeftHandIndex1
								{
									OFFSET 0.750000 0.000000 0.000000
									CHANNELS 3 Zrotation Yrotation Xrotation
									End Site
									{
										OFFSET 0.000000 0.000000 0.000000
									}
								}
							}
						}
					}
				}
				JOINT RightShoulder
				{
					OFFSET 0.000000 0.000000 0.000000
					CHANNELS 3 Zrotation Yrotation Xrotation
					JOINT RightArm
					{
						OFFSET -2.700000 1.550000 -0.730000
						CHANNELS 3 Zrotation Yrotation Xrotation
						JOINT RightForeArm
						{
							OFFSET -5.450000 0.000000 0.000000
							CHANNELS 3 Zrotation Yrotation Xrotation
							JOINT RightHand
							{
								OFFSET -3.450000 0.000000 0.000000
								CHANNELS 3 Zrotation Yrotation Xrotation
								JOINT RightHandIndex1
								{
									OFFSET -0.750000 0.000000 0.000000
									CHANNELS 3 Zrotation Yrotation Xrotation
									End Site
									{
										OFFSET 0.000000 0.000000 0.000000
									}
								}
							}
						}
					}
				}
			}
		}
	}
}
MOTION
Frames: 14
Frame Time: 0.016667
1.119560 17.858250 -8.192810 13.834457 0.930551 -4.176899 -15.831695 10.809683 7.008757 14.190412 -10.586125 -40.227089 -33.566017 53.211275 77.071095 3.643227 19.831369 -1.264026 0.135020 0.034400 0.110990 17.960932 -9.350582 0.912260 -15.000457 0.067838 -9.693931 4.840157 -5.875230 17.998196 -0.068946 -3.751634 3.066838 0.154490 0.160560 0.018330 -2.230608 -2.611116 -8.750196 -4.660184 3.944195 17.708226 1.718701 4.446548 11.472914 -1.597943 -7.437044 -10.939013 -22.609159 14.233804 49.353681 -3.000970 7.439120 -1.056540 -7.359797 -8.901395 3.837211 -17.217120 -12.580372 -1.066508 2.884877 -46.440266 -0.564806 -3.697246 2.954818 0.269700 0.125450 -0.065380 0.006080 10.573260 17.536161 5.896917 26.868031 17.382550 -6.871869 -2.232187 63.710650 -1.303568 1.905821 -1.364629 -0.231270 0.227750 0.113990 -0.168670 
1.109870 17.916130 -8.134080 14.307766 2.426305 -4.309717 -15.874347 10.759391 7.121057 14.391664 -11.031430 -41.115616 -35.894157 54.989086 76.469736 3.677138 19.869576 -1.254510 0.121720 0.006190 0.108010 17.925659 -9.281748 0.861289 -15.781745 0.048625 -9.294970 5.317252 -6.164904 18.444903 -0.075825 -3.871735 3.018188 0.144070 0.169210 0.017330 -2.115182 -2.736167 -8.790200 -5.787786 4.141861 18.334401 1.898527 4.580929 11.524732 -1.540114 -7.095053 -10.777659 -22.279340 13.947770 50.718523 -2.687160 6.923470 -0.476880 -7.697359 -8.641920 3.480843 -15.842865 -12.484262 -1.299513 3.555428 -48.457181 -0.846117 -3.702636 2.952947 0.279390 0.126110 -0.073220 -0.000250 10.758044 17.100126 5.895345 24.746812 15.971090 -7.105140 -0.447542 65.222218 -0.286315 1.919119 -1.393633 -0.244120 0.231600 0.126050 -0.173290 
1.112300 17.976580 -7.997430 15.127463 4.568426 -4.978900 -15.909435 10.812268 7.173237 13.689163 -11.814271 -40.964895 -36.952717 56.579413 77.259968 3.732188 20.036213 -1.305554 0.160230 0.033990 0.187660 17.872286 -9.289904 0.772799 -16.918089 -0.124024 -7.936366 5.014002 -6.454949 19.423146 -0.144116 -4.025726 2.941406 0.143530 0.081280 0.018780 -1.982979 -2.923481 -8.803709 -7.026925 4.394665 20.111582 1.988164 4.815036 12.035816 -1.061214 -6.713288 -11.046719 -22.578182 14.137478 54.108809 -4.346280 7.362570 -1.687330 -8.218875 -9.095203 3.356346 -13.506916 -11.580859 -1.978543 4.426783 -51.631154 -1.356076 -3.653634 2.928327 0.339930 0.074440 -0.008280 -0.027860 10.304231 17.495240 6.159527 22.487934 14.567801 -7.977159 -1.302099 66.899508 -0.809317 1.921093 -1.368867 -0.228480 0.218950 0.104460 -0.209460 
1.101620 17.970330 -8.006140 14.726849 4.418376 -5.207484 -15.900498 10.598911 7.463528 14.996814 -11.170446 -44.162008 -38.420938 60.124918 78.478197 3.853273 20.331095 -1.314861 0.129730 -0.000490 0.143270 17.925278 -9.343053 0.608461 -15.756923 0.227860 -10.069029 2.883131 -6.235052 23.155346 -0.100345 -4.064052 2.922045 0.140340 0.122920 0.011560 -2.066431 -2.608966 -8.839092 -6.055498 4.872526 19.221069 1.873990 5.287992 11.817215 -1.109094 -6.679945 -10.917233 -22.012487 13.789974 53.431164 -3.481070 6.977180 -0.519420 -6.211533 -7.747827 3.380860 -13.936548 -10.915117 -1.598009 4.806153 -53.797368 -1.552794 -3.666907 2.976390 0.314070 0.099260 -0.050050 -0.020560 8.347940 16.250195 5.775419 22.168610 14.938363 -7.082159 0.335855 66.069027 0.468007 1.918865 -1.408550 -0.248740 0.221140 0.123690 -0.200470 
1.092870 17.951540 -7.947900 14.719326 5.212917 -5.642329 -15.889490 10.485854 7.615585 15.326183 -11.078691 -45.804948 -39.512051 62.652981 79.478487 3.943379 20.492267 -1.319428 0.153900 0.033140 0.161750 17.952397 -9.345684 0.536011 -15.629212 0.369569 -10.398456 2.143957 -6.228431 24.766936 -0.126043 -4.147943 2.884771 0.155490 0.100560 0.005220 -2.116357 -2.508825 -8.878563 -5.559165 4.973187 19.547416 1.553623 5.451561 11.809670 -1.061055 -6.994180 -10.968657 -22.869211 14.209449 53.177739 -3.767850 7.094260 -1.291520 -5.138774 -6.767018 3.436541 -13.438310 -9.429117 -1.668302 5.798656 -56.016407 -2.152595 -3.641214 2.998706 0.321100 0.081560 -0.031940 -0.016170 7.092436 15.573370 5.553161 21.152256 14.600570 -6.998295 0.503426 66.822589 0.698255 1.915550 -1.427601 -0.239690 0.225840 0.107300 -0.201530 
1.083310 17.910480 -7.863990 14.889856 5.968799 -5.691234 -15.885236 10.411126 7.688408 15.125168 -11.022821 -46.731015 -39.912433 64.808374 80.781203 4.032558 20.708721 -1.334028 0.169450 0.049620 0.167930 17.962473 -9.328625 0.503867 -15.733988 0.475283 -10.521668 1.856793 -6.130340 24.898630 -0.127705 -4.139723 2.884873 0.168160 0.096740 0.004760 -2.128229 -2.451065 -8.887826 -5.571416 5.191165 19.375037 1.473598 5.656500 11.714869 -1.106579 -7.246505 -10.842553 -23.304162 14.528003 52.431475 -3.767040 7.258690 -1.645320 -4.476619 -5.802540 3.439816 -12.630793 -7.865976 -1.622316 6.143394 -58.685132 -2.533026 -3.637423 3.043752 0.321830 0.078160 -0.031090 -0.008560 6.451657 14.897424 5.226107 19.716389 14.425672 -6.718034 0.982536 67.424150 1.168820 1.913915 -1.459074 -0.238960 0.226060 0.099190 -0.203070 
1.084920 17.836210 -7.789100 14.992883 6.222288 -5.810970 -15.870121 10.286989 7.740412 14.576615 -11.336979 -48.373488 -38.737505 66.414365 83.475515 4.165657 21.233208 -1.414955 0.182990 0.063740 0.185880 17.978382 -9.276419 0.534558 -16.227954 0.485946 -10.251001 2.543009 -6.030035 22.678115 -0.110285 -3.994997 2.931059 0.182900 0.089540 0.013660 -2.163928 -2.351633 -8.928028 -5.285563 5.510281 19.406990 1.086722 6.021291 11.702087 -0.987429 -7.320067 -10.517400 -23.045830 14.489086 51.464191 -4.371050 7.694150 -2.399490 -3.942842 -4.763482 3.159412 -12.229859 -7.363129 -1.587994 9.130298 -60.219930 -4.154942 -3.646558 3.046637 0.321420 0.084260 -0.028020 -0.012200 5.529994 13.990653 4.837932 18.187755 14.232631 -6.379611 2.492714 68.859924 2.171671 1.908438 -1.509769 -0.239020 0.222440 0.096060 -0.212450 
1.089600 17.732080 -7.701600 15.176893 6.989680 -5.430382 -15.827205 10.131988 7.749143 13.783269 -11.648552 -49.635415 -36.925676 68.118610 86.836435 4.330793 21.889906 -1.512650 0.203920 0.092390 0.193350 18.014822 -9.226193 0.598239 -17.088974 0.583045 -10.152733 3.729218 -6.083421 20.534006 -0.101802 -3.932825 2.945541 0.208690 0.089620 0.022750 -2.264178 -2.170221 -8.960661 -4.581886 5.665822 18.953170 0.578368 6.270156 11.745832 -1.060375 -7.661201 -10.122733 -23.280608 14.427268 49.921397 -4.872420 7.819510 -3.275000 -2.528148 -2.738235 3.016698 -12.342496 -5.835976 -1.273120 10.226328 -64.560722 -5.385118 -3.662207 3.117153 0.311670 0.094140 -0.030810 -0.007400 4.092457 12.253239 4.169556 17.320044 14.104194 -6.066570 0.737405 69.079250 1.361989 1.876525 -1.542252 -0.235670 0.221690 0.091650 -0.213970 
1.077340 17.632450 -7.621110 15.103666 7.516726 -5.788476 -15.785105 10.075088 7.730480 13.171234 -11.692870 -49.437693 -35.136720 68.963929 89.428708 4.424202 22.341380 -1.597704 0.256780 0.154170 0.230520 18.042248 -9.224614 0.635520 -17.292820 0.596959 -9.638896 4.133964 -6.062120 19.551108 -0.133640 -3.910939 2.943911 0.247020 0.061070 0.026260 -2.357933 -2.065448 -8.977389 -3.710674 5.761952 19.404398 0.278603 6.567538 11.860017 -1.162225 -8.013888 -9.935828 -24.153289 14.951938 49.378106 -4.925450 7.886990 -4.945120 -1.834040 -1.818142 2.912470 -12.133073 -5.386884 -1.104352 11.486001 -65.655043 -6.316935 -3.642133 3.134250 0.334290 0.071830 -0.001240 0.000780 3.397734 11.617593 3.741484 15.668021 14.109424 -5.976170 0.096652 69.232512 1.135816 1.864847 -1.554414 -0.226440 0.231880 0.069990 -0.220930 
1.059570 17.509630 -7.554590 14.585047 8.923363 -5.492756 -15.753387 10.056945 7.697178 12.256626 -12.205241 -49.910286 -33.839805 69.125405 91.263437 4.515099 22.776066 -1.663298 0.259820 0.162990 0.226840 18.064854 -9.228110 0.671082 -16.915885 0.717265 -9.866137 4.760292 -6.286604 20.091704 -0.130457 -4.001493 2.908487 0.264490 0.077540 0.035030 -2.422063 -2.020986 -8.983571 -3.000211 5.658498 19.560388 0.185449 6.568983 11.586661 -1.370183 -8.297120 -9.328437 -24.251978 14.608444 47.557091 -5.434680 7.829910 -5.196250 -1.840543 -0.702414 2.418718 -11.321392 -5.474417 -0.866927 14.881915 -66.367398 -8.294822 -3.677667 3.142361 0.307500 0.096850 -0.020430 0.001380 3.606558 10.648701 3.219846 13.832522 13.821426 -5.644141 0.712954 69.915669 1.597912 1.868047 -1.606305 -0.227100 0.230020 0.073860 -0.218300 
1.051030 17.380520 -7.460540 14.077951 9.290448 -5.812390 -15.688831 10.079585 7.628444 11.183029 -12.120873 -49.023788 -33.979483 69.452591 91.297992 4.507641 22.806062 -1.672385 0.277660 0.189130 0.241350 18.110108 -9.320299 0.682167 -16.395321 0.862233 -9.837621 4.795845 -6.569881 21.852148 -0.161453 -4.159410 2.851800 0.287600 0.078290 0.030040 -2.585077 -1.872828 -8.961371 -1.654774 5.430758 20.032610 -0.627886 6.664184 11.167937 -1.493902 -8.869986 -9.046628 -25.436876 15.369376 45.997007 -5.754170 8.263250 -6.316420 -2.561157 -0.174491 2.117777 -10.281394 -4.643409 -0.969185 18.058335 -66.511639 -10.153736 -3.692191 3.099736 0.316010 0.096740 -0.015030 0.003180 4.314617 10.354533 2.873428 12.124937 13.600832 -5.600526 0.535304 70.043614 1.572483 1.870761 -1.607145 -0.235520 0.252370 0.070780 -0.223450 
1.043970 17.263230 -7.379930 13.177189 10.682728 -6.289606 -15.634944 10.140481 7.519725 10.005884 -12.265453 -47.829753 -33.429024 68.501531 91.286984 4.490708 22.856737 -1.682643 0.289320 0.204570 0.241190 18.147437 -9.404099 0.714361 -15.507838 1.036219 -9.712453 5.078348 -7.053775 24.395853 -0.204896 -4.434427 2.760966 0.308940 0.097480 0.013230 -2.716985 -1.784469 -8.932471 -0.239344 5.222812 20.463732 -0.495763 6.651275 11.079868 -1.806822 -9.165986 -8.702979 -25.956164 15.475804 45.099975 -5.216190 7.896600 -6.610280 -2.958990 0.538797 1.970278 -9.711415 -3.857140 -0.739595 17.332858 -68.542167 -10.316023 -3.709191 3.129899 0.313730 0.097900 -0.026890 0.016500 5.136277 9.766367 2.492756 10.636073 13.096306 -5.576484 0.857965 70.932175 1.766941 1.881325 -1.625442 -0.251660 0.283430 0.065950 -0.219260 
1.013500 17.138670 -7.302360 12.289611 12.249759 -7.056704 -15.638048 10.204369 7.451782 9.769775 -12.206337 -45.813843 -31.772818 67.629876 92.508219 4.486384 23.008986 -1.728351 0.297540 0.200470 0.263260 18.135981 -9.390637 0.756899 -14.645732 1.192252 -9.091280 5.922271 -7.790283 26.826490 -0.281966 -4.793678 2.629766 0.309390 0.085200 0.018640 -2.687383 -1.862949 -8.936588 -0.002219 5.173194 21.031118 0.106720 6.744012 11.160052 -1.765324 -9.040841 -8.518774 -25.277339 15.118171 44.745211 -5.469830 8.055830 -7.213420 -3.238176 0.979440 1.837617 -9.857015 -3.144485 -0.948495 17.961358 -69.767158 -11.137306 -3.705144 3.137554 0.332680 0.090090 -0.017260 0.012310 5.301875 9.312163 2.455459 9.790798 12.029195 -5.811179 2.492183 71.213337 2.677208 1.893836 -1.648481 -0.257710 0.281760 0.063150 -0.233160 
0.981830 17.033690 -7.222160 11.150075 13.990154 -7.718797 -15.615102 10.287716 7.301252 9.259739 -12.127774 -42.919614 -29.687367 65.629664 93.330094 4.459332 23.060370 -1.750324 0.282950 0.178210 0.264950 18.147743 -9.394378 0.851221 -13.685523 1.292662 -8.349590 7.098696 -8.619165 28.776969 -0.354961 -5.170429 2.512949 0.298240 0.092560 0.009780 -2.737468 -1.885565 -8.928424 0.905674 4.665423 21.382112 0.340661 6.447115 11.129213 -1.672235 -9.045992 -8.357527 -25.081557 14.860377 44.772241 -5.990200 8.100740 -6.862110 -4.031422 1.135905 1.812648 -10.947629 -2.715783 -1.319467 18.629090 -70.061774 -11.786957 -3.706039 3.112503 0.330620 0.096720 -0.027340 0.010630 5.920953 9.081151 2.296268 9.777163 11.849337 -6.070171 1.928139 70.527853 2.287381 1.900927 -1.633144 -0.269750 0.288750 0.064240 -0.238030 
